<svg xmlns="http://www.w3.org/2000/svg" width="23" height="32">
    <path fill-rule="evenodd" stroke="#000" d="M17.361 15.535a7.418 7.418 0 0 1-5.207 2.098v.006H7.225v3.294h8.523c.224 0 .41.179.41.395a.406.406 0 0 1-.41.395H7.225v6.382a.406.406 0 0 1-.41.395.406.406 0 0 1-.41-.395v-6.382H3.91a.406.406 0 0 1-.41-.395c0-.216.186-.395.41-.395h2.495v-3.294H3.91a.406.406 0 0 1-.41-.395c0-.215.186-.394.41-.394h2.495V3.894c0-.215.186-.394.41-.394h5.344c1.975.042 3.818.79 5.197 2.11C18.74 6.93 19.5 8.683 19.5 10.545c0 1.874-.76 3.648-2.139 4.99zM12.148 4.284H7.225v12.555h4.923c3.605 0 6.532-2.825 6.532-6.298 0-3.432-2.867-6.178-6.532-6.257z"/>
</svg>
