<svg xmlns="http://www.w3.org/2000/svg" width="21" height="24">
    <path fill="#E87845" fill-rule="evenodd" d="M17.955 15.074c-.424-.56-.976-.903-1.597-.98-.615-.073-1.238.115-1.806.562l-1.775 1.377c-.121-.088-.243-.17-.36-.248-.17-.113-.329-.217-.463-.328-1.366-1.116-2.562-2.504-3.658-4.241-.529-.86-.868-1.579-1.09-2.288.457-.323.885-.665 1.301-.995.158-.12.316-.25.473-.372 1.18-.919 1.347-2.276.425-3.447L8.207 2.585c-.136-.172-.277-.35-.407-.529a24.075 24.075 0 0 0-.827-1.044C6.546.473 5.997.147 5.387.073c-.611-.074-1.233.109-1.792.525l-.011.009-1.913 1.504A3.66 3.66 0 0 0 .3 4.294C0 5.735.263 7.142.484 8.073c.542 2.278 1.505 4.441 3.045 6.826 1.87 2.876 4.254 5.256 7.088 7.077 1.084.683 2.541 1.516 4.244 1.834.105.015.214.035.314.046 1.156.143 2.178-.149 3.04-.881.007-.008.017-.013.024-.024.298-.28.634-.529.986-.793.241-.178.488-.365.73-.564.559-.454.893-1.017.969-1.633.076-.619-.116-1.244-.56-1.805l-2.409-3.082zm1.144 5.469c-.004 0-.005.004 0 0-.221.183-.444.352-.685.535-.363.268-.734.55-1.089.876-.572.481-1.199.658-1.979.565-.075-.011-.156-.02-.23-.034-1.475-.279-2.785-1.023-3.76-1.645-2.664-1.711-4.912-3.956-6.676-6.664-1.454-2.258-2.362-4.29-2.867-6.417-.312-1.302-.363-2.285-.176-3.19a2.308 2.308 0 0 1 .873-1.398l1.916-1.489c.274-.2.55-.291.805-.262.315.04.547.261.688.44l.013.019c.27.317.524.648.791 1.001.135.179.276.357.415.543l1.199 1.524c.465.593.405 1.084-.191 1.543-.163.131-.321.259-.483.38a27.89 27.89 0 0 1-1.406 1.063c-.011.007-.022.009-.028.019-.483.376-.455.807-.4 1.101.003.019.007.033.01.046.249.902.65 1.77 1.292 2.824l.005.004c1.172 1.869 2.466 3.368 3.947 4.575.19.154.387.288.575.409.169.112.329.218.463.325.018.012.037.032.055.041.16.108.315.165.481.187.415.053.707-.177.803-.252l1.921-1.496c.192-.148.487-.318.802-.284.311.041.542.266.676.456a.031.031 0 0 0 .009.007l2.419 3.087c.453.572.388 1.096-.188 1.561z"/>
</svg>
