<svg xmlns="http://www.w3.org/2000/svg" width="22" height="24">
    <path fill-rule="evenodd" d="M.55 20.181H4.4v3.274c0 .16.052.29.155.391a.54.54 0 0 0 .395.155h2.871a.547.547 0 0 0 .386-.155.509.509 0 0 0 .164-.391v-3.274h8.679c.16 0 .292-.049.396-.153a.53.53 0 0 0 .154-.392v-2.182a.527.527 0 0 0-.55-.545H8.37v-2.012h5.844c2.291 0 4.162-.691 5.612-2.079C21.275 11.433 22 9.642 22 7.449c0-2.193-.725-3.983-2.174-5.369C18.376.695 16.505 0 14.214 0H4.95a.538.538 0 0 0-.395.153.532.532 0 0 0-.155.392v10.722H.55a.538.538 0 0 0-.55.546v2.54c0 .159.051.289.155.391a.533.533 0 0 0 .395.153H4.4v2.012H.55a.527.527 0 0 0-.55.545v2.182a.527.527 0 0 0 .55.545zM8.37 3.632h5.5c1.215 0 2.194.351 2.939 1.056.745.704 1.117 1.625 1.117 2.762 0 1.135-.372 2.057-1.117 2.76-.745.705-1.724 1.057-2.939 1.057h-5.5V3.632z"/>
</svg>
